<svg xmlns="http://www.w3.org/2000/svg" width="16" height="16" viewBox="0 0 16 16">
  <g id="그룹_19200" data-name="그룹 19200" transform="translate(-1756.62 687)">
    <path id="search_FILL0_wght200_GRAD0_opsz48" d="M167.616,262.538l-3.724-3.74a6.281,6.281,0,0,1-2.129,1.256,7.257,7.257,0,0,1-2.447.433,6.781,6.781,0,0,1-4.974-2.027,6.973,6.973,0,0,1,4.942-11.921,6.794,6.794,0,0,1,4.965,2.028,6.693,6.693,0,0,1,2.048,4.942,7.044,7.044,0,0,1-.454,2.481,6.628,6.628,0,0,1-1.268,2.126l3.731,3.71Zm-8.307-3a5.97,5.97,0,1,0-4.3-1.742A5.851,5.851,0,0,0,159.309,259.542Z" transform="translate(1604.313 -933.538)"/>
  </g>
</svg>
