<svg xmlns="http://www.w3.org/2000/svg" width="36" height="40" viewBox="0 0 36 40">
  <path id="assignment" d="M9,42a2.988,2.988,0,0,1-3-3V9A2.988,2.988,0,0,1,9,6H19.25a4.437,4.437,0,0,1,1.6-2.875,4.972,4.972,0,0,1,6.3,0A4.437,4.437,0,0,1,28.75,6H39a2.988,2.988,0,0,1,3,3V39a2.988,2.988,0,0,1-3,3Zm0-3H39V9H9Zm5-5H27.65V31H14Zm0-8.5H34v-3H14ZM14,17H34V14H14ZM24,8.15a1.679,1.679,0,0,0,1.225-.525,1.692,1.692,0,0,0,0-2.45,1.692,1.692,0,0,0-2.45,0,1.692,1.692,0,0,0,0,2.45A1.679,1.679,0,0,0,24,8.15ZM9,39v0Z" transform="translate(-6 -2)" fill="#777"/>
</svg>
