<svg xmlns="http://www.w3.org/2000/svg" width="14" height="16.001" viewBox="0 0 14 16.001">
  <path id="bell" d="M8,16a2,2,0,0,0,2-2H6A2,2,0,0,0,8,16ZM8,1.918l-.8.161A4,4,0,0,0,4,6a21.7,21.7,0,0,1-.459,3.742A12.936,12.936,0,0,1,2.878,12H13.122a13,13,0,0,1-.663-2.258A21.7,21.7,0,0,1,12,6,4,4,0,0,0,8.8,2.08L8,1.917ZM14.22,12A2.544,2.544,0,0,0,15,13H1a2.544,2.544,0,0,0,.78-1A17.709,17.709,0,0,0,3,6,5,5,0,0,1,7.005,1.1a1,1,0,1,1,1.99,0A5,5,0,0,1,13,6,17.709,17.709,0,0,0,14.22,12Z" transform="translate(-1 0.001)" fill="#777"/>
</svg>
