<svg xmlns="http://www.w3.org/2000/svg" width="16" height="12" viewBox="0 0 16 12">
  <path id="people" d="M15,14a.979.979,0,0,0,1-1c0-1-1-4-5-4s-5,3-5,4a.979.979,0,0,0,1,1ZM7.022,13,7,13a3.069,3.069,0,0,1,.76-1.72A4,4,0,0,1,11,10a4.008,4.008,0,0,1,3.24,1.276A3.079,3.079,0,0,1,15,13l-.008,0-.014,0ZM11,7A2,2,0,1,0,9,5,2,2,0,0,0,11,7Zm3-2a3,3,0,1,1-3-3,3,3,0,0,1,3,3ZM6.936,9.28a5.88,5.88,0,0,0-1.23-.247Q5.354,9,5,9c-4,0-5,3-5,4a.884.884,0,0,0,1,1H5.216A2.238,2.238,0,0,1,5,13a4.589,4.589,0,0,1,1.09-2.9,5.291,5.291,0,0,1,.846-.816ZM4.92,10A5.493,5.493,0,0,0,4,13H1a3.068,3.068,0,0,1,.76-1.724A3.974,3.974,0,0,1,4.92,10ZM1.5,5.5a3,3,0,1,1,3,3A3,3,0,0,1,1.5,5.5Zm3-2a2,2,0,1,0,2,2A2,2,0,0,0,4.5,3.5Z" transform="translate(0 -2)" fill="#777"/>
</svg>
