<svg xmlns="http://www.w3.org/2000/svg" width="32" height="31.05" viewBox="0 0 32 31.05">
  <path id="person_filled_FILL1_wght400_GRAD0_opsz48" d="M24,23.95a7.193,7.193,0,0,1-7.5-7.5A7.193,7.193,0,0,1,24,8.95a7.193,7.193,0,0,1,7.5,7.5,7.193,7.193,0,0,1-7.5,7.5ZM8,40V35.3a5.5,5.5,0,0,1,.95-3.25A6.1,6.1,0,0,1,11.4,30a37.583,37.583,0,0,1,6.425-2.25A25.973,25.973,0,0,1,24,27a24.88,24.88,0,0,1,6.15.775A42.593,42.593,0,0,1,36.55,30a6.028,6.028,0,0,1,2.5,2.05A5.5,5.5,0,0,1,40,35.3V40Z" transform="translate(-8 -8.95)" fill="#777"/>
</svg>
