<svg xmlns="http://www.w3.org/2000/svg" width="15.905" height="12.5" viewBox="0 0 15.905 12.5">
  <g id="piggy-bank" transform="translate(-0.095 -1.527)">
    <path id="패스_3" data-name="패스 3" d="M5,6.25a.75.75,0,1,1-.75-.75A.75.75,0,0,1,5,6.25Zm1.138-1.5a6.7,6.7,0,0,1,3.719.019.5.5,0,1,0,.286-.958,7.7,7.7,0,0,0-4.281-.023.5.5,0,0,0,.276.962Z" fill="#777"/>
    <path id="패스_4" data-name="패스 4" d="M7.964,1.527a6.445,6.445,0,0,0-6.32,4.125h-.55A1,1,0,0,0,.11,6.824l.254,1.46A1.5,1.5,0,0,0,1.842,9.527h.263A5.673,5.673,0,0,0,3.25,10.909l-.729,2.477a.5.5,0,0,0,.48.641H5a.5.5,0,0,0,.471-.332l.482-1.351a7.7,7.7,0,0,0,4.039-.005l.543,1.372a.5.5,0,0,0,.465.316h2a.5.5,0,0,0,.478-.645l-.761-2.506A5.114,5.114,0,0,0,14.5,7.069c0-.145-.007-.29-.02-.431a2.541,2.541,0,0,0,.7-.444C15.5,6.5,16,6.5,16,5.777c0,.223-.5.223-.461-.026a.95.95,0,0,0,.09-.255.7.7,0,0,0-.2-.645.58.58,0,0,0-.707-.1.735.735,0,0,0-.375.562.713.713,0,0,0,.32.654,2.112,2.112,0,0,1-.259.153c-.534-2.664-3.284-4.595-6.442-4.595ZM2.516,6.26c.455-2.066,2.667-3.733,5.448-3.733,3.146,0,5.536,2.114,5.536,4.542a4.176,4.176,0,0,1-1.67,3.248.5.5,0,0,0-.165.535l.66,2.175H11.34l-.59-1.487a.5.5,0,0,0-.629-.288,6.66,6.66,0,0,1-4.314,0,.5.5,0,0,0-.635.3l-.525,1.471H3.668l.633-2.15a.5.5,0,0,0-.17-.534A4.649,4.649,0,0,1,2.847,8.8.5.5,0,0,0,2.4,8.527h-.56a.5.5,0,0,1-.492-.414l-.254-1.46h.933a.5.5,0,0,0,.488-.393ZM15.137,5.4a.565.565,0,0,1-.1.21L15,5.588c-.146-.09-.157-.175-.152-.223a.236.236,0,0,1,.117-.173.081.081,0,0,1,.113.012.2.2,0,0,1,.064.2Z" fill="#777" fill-rule="evenodd"/>
  </g>
</svg>
